<svg width="45" height="45" viewBox="0 0 45 45" fill="none" xmlns="http://www.w3.org/2000/svg">
<g clip-path="url(#clip0_202_1293)">
<path d="M12.5024 18.1775C11.4493 18.1992 10.4604 17.6239 9.97515 16.6376L9.73336 16.1462H5.51162L5.62553 15.6281C5.11893 15.6001 4.63746 15.3819 4.26032 15.0017C3.82333 14.5615 3.54059 13.9373 3.40497 13.1128L2.14163 18.855L2.16352 24.1701C0.923203 24.4634 0 25.5768 0 26.9067C0 28.4601 1.25912 29.7192 2.8125 29.7192H4.76824C4.76824 26.2645 7.5789 23.4538 11.0336 23.4538C12.1406 23.4538 13.1806 23.7436 14.084 24.2494V18.1483L12.5024 18.1775Z" fill="#074642"/>
<path d="M26.5425 6.55322C26.1129 5.78603 25.3 5.30957 24.4209 5.30957H12.007C12.4567 6.0889 12.3953 7.11194 12.2383 8.01871H15.7026C16.4598 7.07512 17.6214 6.46938 18.9226 6.46938C20.2237 6.46938 21.3854 7.07512 22.1425 8.01871H24.2584L28.6887 15.9302C28.6454 15.5262 28.6935 15.0561 28.9038 14.514C29.1333 13.9228 29.6172 13.4434 30.199 13.0823L26.5425 6.55322Z" fill="#074642"/>
<path d="M30.9437 22.8651C30.643 22.4482 30.4103 22.0528 30.2298 21.6785L26.6729 22.8809C25.6273 23.2347 24.5149 22.9225 23.7944 22.1714C23.7944 28.1453 23.7989 24.4739 23.7989 29.7191H28.7107C28.7107 27.3019 30.0875 25.2016 32.0973 24.1572C31.7131 23.8299 31.3298 23.4004 30.9437 22.8651Z" fill="#074642"/>
<path d="M43.125 24.2548C43.125 23.8198 43.125 23.3734 43.125 22.9244H41.0858C40.0807 22.9244 39.2659 22.1097 39.2659 21.1045C39.2659 20.0994 40.0807 19.2847 41.0858 19.2847H42.8441C42.1824 17.4454 40.423 16.1298 38.3559 16.1298H36.5421C36.8394 17.164 37.0121 18.5026 36.4314 19.5803C35.942 20.4883 36.0403 22.3464 36.0403 22.8197C36.0403 23.0688 35.9989 23.3054 35.9258 23.5258C38.9315 23.9848 41.2414 26.5873 41.2414 29.7193C41.588 29.7193 41.8562 29.7193 42.1876 29.7193C43.7408 29.7193 45.0001 28.46 45.0001 26.9068C45 25.6822 44.2172 24.641 43.125 24.2548Z" fill="#074642"/>
<path d="M11.0337 25.4291C8.66443 25.4292 6.74376 27.3498 6.74376 29.7191C6.74376 32.0884 8.66443 34.009 11.0337 34.009C12.2078 34.009 13.2713 33.537 14.0459 32.7728V26.6654C13.2712 25.9011 12.2077 25.4291 11.0337 25.4291ZM11.0337 31.4567C10.074 31.4567 9.2961 30.6788 9.2961 29.7191C9.2961 28.7594 10.074 27.9815 11.0337 27.9815C11.9934 27.9815 12.7713 28.7594 12.7713 29.7191C12.7713 30.6788 11.9934 31.4567 11.0337 31.4567Z" fill="#074642"/>
<path d="M34.976 25.4292C32.6067 25.4292 30.6861 27.3499 30.6861 29.7191C30.6861 32.0884 32.6066 34.0091 34.976 34.0091C37.3453 34.0091 39.2659 32.0884 39.2659 29.7191C39.2658 27.3499 37.3453 25.4292 34.976 25.4292ZM34.976 31.4567C34.0163 31.4567 33.2384 30.6788 33.2384 29.7191C33.2384 28.7595 34.0163 27.9815 34.976 27.9815C35.9357 27.9815 36.7136 28.7595 36.7136 29.7191C36.7136 30.6788 35.9357 31.4567 34.976 31.4567Z" fill="#074642"/>
<path d="M33.8005 14.0395C33.5853 13.8409 33.2643 13.7572 32.9016 13.7572C31.8802 13.7572 30.529 14.421 30.2848 15.0502C30.1202 15.4745 30.1303 15.7817 30.2259 16.0355C31.3811 16.0642 32.3982 16.8082 32.7698 17.908C33.1876 19.1436 32.6758 20.4725 31.6131 21.1333C31.751 21.405 31.9246 21.6925 32.1453 21.9985C32.9358 23.0947 33.5623 23.466 33.9785 23.466C34.3539 23.466 34.5583 23.1641 34.5583 22.8197C34.5583 22.2238 34.432 20.1666 35.1269 18.8774C35.8218 17.5883 34.6215 14.7974 33.8005 14.0395Z" fill="#074642"/>
<path d="M10.8316 6.32847C10.6172 5.23168 8.16926 4.57364 7.39837 5.06592C6.17054 5.84999 7.0962 6.72398 6.57572 7.64823C6.05514 8.57249 4.81193 9.20047 4.7925 11.7706C4.77897 13.5573 5.28285 14.1523 5.73557 14.1523C5.93411 14.1523 6.12282 14.0378 6.25368 13.8592C6.47763 13.5535 7.00963 12.7416 7.70722 12.0288L7.60632 11.8238C6.93475 10.4592 7.49857 8.80268 8.86325 8.13102C9.44482 7.84476 10.1029 7.77031 10.7494 7.92966C10.8737 7.29034 10.9045 6.70156 10.8316 6.32847Z" fill="#074642"/>
<path d="M31.3663 18.3824C31.3662 18.3821 31.3661 18.3818 31.3661 18.3815C31.1408 17.7161 30.4124 17.3559 29.7481 17.5818C28.4735 18.0126 27.6599 18.2878 26.3457 18.732C25.9495 18.0855 24.9886 16.517 24.5325 15.7727C23.8952 14.7325 22.7414 14.0865 21.5215 14.0865C14.2014 14.0865 16.2291 14.0729 13.2375 14.1281C12.8507 13.3421 11.6162 10.8335 11.2266 10.0418C10.9133 9.40481 10.1421 9.15257 9.51733 9.46001C8.8846 9.7714 8.62409 10.5366 8.9354 11.1692C10.386 14.1171 9.95766 13.2468 11.3044 15.9833C11.5233 16.428 11.9863 16.7079 12.4735 16.696C15.7482 16.6355 15.4856 16.6398 15.5657 16.6398C15.5657 16.6623 15.5275 24.0834 15.5275 38.5678C15.5275 39.4139 16.2134 40.0998 17.0595 40.0998C17.9054 40.0998 18.5915 39.4139 18.5915 38.5678C18.5915 37.2672 18.5915 28.8737 18.5915 27.5086H19.253C19.253 28.8743 19.253 37.2639 19.253 38.5678C19.253 39.4139 19.939 40.0998 20.785 40.0998C21.6311 40.0998 22.317 39.4139 22.317 38.5678C22.317 33.7452 22.3127 22.7384 22.3125 17.5304C22.3125 17.4681 22.3539 17.4134 22.4139 17.3964C22.4738 17.3795 22.5378 17.4044 22.5704 17.4574C22.8414 17.8991 23.4244 18.8522 24.7003 20.9347C25.0112 21.442 25.6322 21.6688 26.1981 21.4774C28.9396 20.5506 27.6253 20.9949 30.5657 20.0007C31.2348 19.7747 31.5916 19.0491 31.3663 18.3824Z" fill="#0F9E94"/>
<path d="M18.9228 13.2958C20.4134 13.2958 21.6218 12.0874 21.6218 10.5967C21.6218 9.1061 20.4134 7.89771 18.9228 7.89771C17.4321 7.89771 16.2237 9.1061 16.2237 10.5967C16.2237 12.0874 17.4321 13.2958 18.9228 13.2958Z" fill="#0F9E94"/>
</g>
<defs>
<clipPath id="clip0_202_1293">
<rect width="45" height="45" fill="white"/>
</clipPath>
</defs>
</svg>
