<svg width="45" height="45" viewBox="0 0 45 45" fill="none" xmlns="http://www.w3.org/2000/svg">
<g clip-path="url(#clip0_192_1262)">
<path d="M10.0391 40.4506C10.4985 41.0201 10.7084 41.7334 10.6306 42.4608C10.5528 43.1881 10.1961 43.8412 9.62738 44.2999L9.0101 44.7979C9.29467 44.9255 9.60801 45.0001 9.94008 45.0001C11.2002 45.0001 12.2211 43.9792 12.2211 42.7191V36.9131L9.1844 39.391L10.0391 40.4506Z" fill="#074642"/>
<path d="M14.0235 42.7191C14.0235 43.9791 15.0444 45 16.3045 45C17.5647 45 18.5856 43.9791 18.5856 42.7191V31.7194L14.0235 35.4421V42.7191Z" fill="#074642"/>
<path d="M13.1223 9.92903C15.8642 9.92903 18.0873 7.70685 18.0873 4.96497C18.0873 2.223 15.8642 0 13.1223 0C10.3803 0 8.15741 2.223 8.15741 4.96497C8.15741 7.70685 10.3803 9.92903 13.1223 9.92903Z" fill="#074642"/>
<path d="M40.7564 37.3431C42.1889 37.3431 43.4522 38.0319 44.2719 39.0825C44.2648 39.0116 44.2705 38.9413 44.2601 38.8704C43.778 35.5933 39.8859 33.4518 35.5684 34.0875C31.8044 34.6418 28.4319 38.7345 27.946 41.9462H26.4729C25.6597 41.9462 24.9001 41.4765 24.5375 40.7492C23.5973 38.8638 24.528 36.5446 27.2288 34.0427C30.4896 31.0212 31.6933 28.142 30.5314 26.1428C29.4805 24.3363 26.758 23.8397 23.1418 24.7288L19.6944 14.1294C19.1828 12.5588 17.7297 11.5034 16.0777 11.5034H10.1667C8.51542 11.5034 7.06226 12.5587 6.55077 14.1301L2.7227 25.897C2.33737 27.0808 2.9847 28.3527 4.16919 28.738C5.35149 29.1262 6.62559 28.476 7.01019 27.2914L7.65898 25.2973V33.8454L12.221 30.1227V29.0865H13.4908L18.491 25.0064L18.9952 26.5569L6.82639 36.4678L5.66081 37.4169L3.87202 35.1993C3.62838 34.8969 3.27091 34.74 2.91052 34.74C2.63902 34.7407 2.36541 34.8294 2.13703 35.0138L1.18741 35.7792C0.932626 35.9847 0.769743 36.2833 0.735211 36.6085C0.699858 36.9343 0.796144 37.2602 1.0016 37.515L5.99873 43.7098C6.20436 43.9646 6.50309 44.1275 6.82812 44.1619C6.87216 44.1671 6.91619 44.1694 6.96022 44.1694C7.24132 44.1694 7.51419 44.0732 7.73453 43.8957L8.68361 43.1303C9.21419 42.7023 9.29713 41.9251 8.86924 41.3946L7.07651 39.172L8.24191 38.2229L20.1911 28.4911C20.5452 28.7122 20.9506 28.8498 21.3774 28.8498C21.6086 28.8498 21.8442 28.8138 22.0754 28.7383C22.1744 28.7061 22.2637 28.6592 22.3548 28.6153C23.2729 28.1728 23.7762 27.1683 23.5803 26.1659C26.9218 25.3571 28.7119 26.0032 29.2317 26.899C29.976 28.1775 28.7884 30.5495 26.2073 32.9406C22.112 36.7342 22.308 39.6457 23.1931 41.4203C23.817 42.6717 25.0734 43.4496 26.473 43.4496H27.9804C28.1938 44.3158 29.0109 44.9046 29.9106 44.7721L36.7457 43.7656C36.4573 43.1744 36.281 42.5194 36.281 41.8187C36.281 39.3511 38.2889 37.3431 40.7564 37.3431Z" fill="#074642"/>
<path d="M40.7564 44.7909C42.3979 44.7909 43.7287 43.4602 43.7287 41.8186C43.7287 40.177 42.3979 38.8462 40.7564 38.8462C39.1148 38.8462 37.784 40.177 37.784 41.8186C37.784 43.4602 39.1148 44.7909 40.7564 44.7909Z" fill="#0F9E94"/>
</g>
<defs>
<clipPath id="clip0_192_1262">
<rect width="45" height="45" fill="white"/>
</clipPath>
</defs>
</svg>
