<svg width="26" height="26" viewBox="0 0 26 26" fill="none" xmlns="http://www.w3.org/2000/svg">
<path d="M11 13H13V18.3333H15.6667M13 7.66667H13.0133M15.0838 24.8177C16.6357 24.544 18.1185 23.9674 19.4476 23.1207C20.7767 22.274 21.9259 21.1738 22.8298 19.8829C23.7337 18.592 24.3745 17.1358 24.7156 15.5973C25.0566 14.0588 25.0913 12.4681 24.8177 10.9162C24.544 9.3643 23.9674 7.88147 23.1207 6.5524C22.274 5.22333 21.1738 4.07405 19.8829 3.17017C18.592 2.2663 17.1358 1.62553 15.5973 1.28445C14.0588 0.943369 12.4681 0.908661 10.9162 1.18231C9.3643 1.45595 7.88147 2.03259 6.5524 2.8793C5.22333 3.72601 4.07405 4.82621 3.17017 6.11708C2.2663 7.40796 1.62553 8.86422 1.28445 10.4027C0.943369 11.9412 0.908661 13.5319 1.18231 15.0838C1.45595 16.6357 2.03259 18.1185 2.8793 19.4476C3.72602 20.7767 4.82621 21.9259 6.11709 22.8298C7.40796 23.7337 8.86422 24.3745 10.4027 24.7156C11.9412 25.0566 13.5319 25.0913 15.0838 24.8177Z" stroke="#8A95BF" stroke-width="2" stroke-linecap="round" stroke-linejoin="round"/>
</svg>
