<svg width="20" height="18" viewBox="0 0 20 18" fill="none" xmlns="http://www.w3.org/2000/svg">
<path d="M8.46154 2.57143H11.5385C11.5385 2.23044 11.3764 1.90341 11.0879 1.66229C10.7993 1.42117 10.408 1.28571 10 1.28571C9.59198 1.28571 9.20066 1.42117 8.91214 1.66229C8.62363 1.90341 8.46154 2.23044 8.46154 2.57143ZM6.92308 2.57143C6.92308 1.88944 7.24725 1.23539 7.82429 0.753154C8.40132 0.270918 9.18395 0 10 0C10.8161 0 11.5987 0.270918 12.1757 0.753154C12.7527 1.23539 13.0769 1.88944 13.0769 2.57143H19.2308C19.4348 2.57143 19.6304 2.63916 19.7747 2.75972C19.919 2.88028 20 3.04379 20 3.21429C20 3.38478 19.919 3.5483 19.7747 3.66885C19.6304 3.78941 19.4348 3.85714 19.2308 3.85714H18.3631L16.5092 15.2203C16.3835 15.9903 15.9282 16.6962 15.2275 17.2073C14.5269 17.7184 13.6284 18 12.6985 18H7.30154C6.37156 18 5.47309 17.7184 4.77246 17.2073C4.07183 16.6962 3.6165 15.9903 3.49077 15.2203L1.63692 3.85714H0.769231C0.565218 3.85714 0.369561 3.78941 0.225302 3.66885C0.0810437 3.5483 0 3.38478 0 3.21429C0 3.04379 0.0810437 2.88028 0.225302 2.75972C0.369561 2.63916 0.565218 2.57143 0.769231 2.57143H6.92308ZM8.46154 7.07143C8.46154 6.90093 8.3805 6.73742 8.23624 6.61686C8.09198 6.4963 7.89632 6.42857 7.69231 6.42857C7.4883 6.42857 7.29264 6.4963 7.14838 6.61686C7.00412 6.73742 6.92308 6.90093 6.92308 7.07143V13.5C6.92308 13.6705 7.00412 13.834 7.14838 13.9546C7.29264 14.0751 7.4883 14.1429 7.69231 14.1429C7.89632 14.1429 8.09198 14.0751 8.23624 13.9546C8.3805 13.834 8.46154 13.6705 8.46154 13.5V7.07143ZM12.3077 6.42857C12.5117 6.42857 12.7074 6.4963 12.8516 6.61686C12.9959 6.73742 13.0769 6.90093 13.0769 7.07143V13.5C13.0769 13.6705 12.9959 13.834 12.8516 13.9546C12.7074 14.0751 12.5117 14.1429 12.3077 14.1429C12.1037 14.1429 11.908 14.0751 11.7638 13.9546C11.6195 13.834 11.5385 13.6705 11.5385 13.5V7.07143C11.5385 6.90093 11.6195 6.73742 11.7638 6.61686C11.908 6.4963 12.1037 6.42857 12.3077 6.42857ZM5.01539 15.0467C5.09089 15.5087 5.36407 15.9321 5.78438 16.2387C6.20468 16.5453 6.74365 16.7142 7.30154 16.7143H12.6985C13.2566 16.7145 13.796 16.5457 14.2166 16.2391C14.6372 15.9325 14.9106 15.5089 14.9862 15.0467L16.8108 3.85714H3.18923L5.01539 15.0467Z" fill="black"/>
</svg>
