<svg width="20" height="20" viewBox="0 0 20 20" fill="none" xmlns="http://www.w3.org/2000/svg">
<path d="M0.941162 5.23535H20C18.9021 5.23535 18.3531 5.23535 17.932 5.44502C17.5426 5.63892 17.2271 5.95448 17.0332 6.34388C16.8235 6.76496 16.8235 7.31391 16.8235 8.41182V15.0001C16.8235 16.8857 16.8235 17.8285 16.2377 18.4143C15.6519 19.0001 14.7091 19.0001 12.8235 19.0001H8.11764C6.23202 19.0001 5.28921 19.0001 4.70342 18.4143C4.11763 17.8285 4.11763 16.8857 4.11763 15.0001V8.41182C4.11763 7.31391 4.11763 6.76496 3.90796 6.34388C3.71406 5.95448 3.3985 5.63892 3.00911 5.44502C2.58803 5.23535 2.03907 5.23535 0.941162 5.23535Z" fill="#57BBB4" fill-opacity="0.7" stroke="#074642" stroke-width="2" stroke-linecap="round"/>
<path d="M8.35294 13.7058L8.35294 10.5293" stroke="#074642" stroke-width="2" stroke-linecap="round"/>
<path d="M12.5882 13.7058L12.5882 10.5293" stroke="#074642" stroke-width="2" stroke-linecap="round"/>
<path d="M8.42509 1.39239C8.54574 1.27982 8.8116 1.18035 9.18144 1.1094C9.55127 1.03846 10.0044 1 10.4706 1C10.9367 1 11.3899 1.03846 11.7597 1.1094C12.1296 1.18035 12.3954 1.27982 12.5161 1.39239" stroke="#074642" stroke-width="2" stroke-linecap="round"/>
</svg>
