<svg width="57" height="57" viewBox="0 0 57 57" fill="none" xmlns="http://www.w3.org/2000/svg">
<path d="M52.25 54.0312H4.75C3.77625 54.0312 2.96875 53.2237 2.96875 52.25C2.96875 51.2763 3.77625 50.4688 4.75 50.4688H52.25C53.2237 50.4688 54.0312 51.2763 54.0312 52.25C54.0312 53.2237 53.2237 54.0312 52.25 54.0312Z" fill="#074642"/>
<path opacity="0.4" d="M49.8731 23.7029V52.2504H7.00439L7.12314 23.6791C7.12314 22.2303 7.78814 20.853 8.95189 19.9505L25.5768 7.03045C27.2868 5.6767 29.7093 5.6767 31.4193 7.03045L34.6018 9.5004L45.1231 17.6704L48.0443 19.9505C49.2081 20.853 49.8731 22.2304 49.8731 23.7029Z" fill="#0F9E94"/>
<path d="M30.875 40.375H26.125C24.1537 40.375 22.5625 41.9662 22.5625 43.9375V52.25H34.4375V43.9375C34.4375 41.9662 32.8462 40.375 30.875 40.375Z" fill="#074642"/>
<path d="M22.5625 32.6562H17.8125C16.5063 32.6562 15.4375 31.5875 15.4375 30.2812V26.7188C15.4375 25.4125 16.5063 24.3438 17.8125 24.3438H22.5625C23.8687 24.3438 24.9375 25.4125 24.9375 26.7188V30.2812C24.9375 31.5875 23.8687 32.6562 22.5625 32.6562Z" fill="#074642"/>
<path d="M39.1875 32.6562H34.4375C33.1313 32.6562 32.0625 31.5875 32.0625 30.2812V26.7188C32.0625 25.4125 33.1313 24.3438 34.4375 24.3438H39.1875C40.4937 24.3438 41.5625 25.4125 41.5625 26.7188V30.2812C41.5625 31.5875 40.4937 32.6562 39.1875 32.6562Z" fill="#074642"/>
<path d="M45.1257 17.67L34.6045 9.5H42.7032C44.0095 9.5 45.0782 10.545 45.0782 11.8512L45.1257 17.67Z" fill="#074642"/>
</svg>
