<svg width="57" height="57" viewBox="0 0 57 57" fill="none" xmlns="http://www.w3.org/2000/svg">
<path d="M54.0312 52.25C54.0312 53.2237 53.2237 54.0312 52.25 54.0312H4.75C3.77625 54.0312 2.96875 53.2237 2.96875 52.25C2.96875 51.2525 3.77625 50.4688 4.75 50.4688H52.25C53.2237 50.4688 54.0312 51.2525 54.0312 52.25Z" fill="#074642"/>
<path opacity="0.4" d="M49.8731 23.7029V50.4692H7.00439L7.12314 23.6791C7.12314 22.2303 7.78814 20.853 8.95189 19.9505L25.5768 7.03045C27.2868 5.6767 29.7093 5.6767 31.4193 7.03045L48.0443 19.9505C49.2081 20.853 49.8731 22.2304 49.8731 23.7029Z" fill="#0F9E94"/>
<path d="M32.0625 19.5938H24.9375C23.9638 19.5938 23.1562 18.7862 23.1562 17.8125C23.1562 16.8388 23.9638 16.0312 24.9375 16.0312H32.0625C33.0363 16.0312 33.8438 16.8388 33.8438 17.8125C33.8438 18.7862 33.0363 19.5938 32.0625 19.5938Z" fill="#074642"/>
<path d="M36.8125 26.125H20.1875C18.2162 26.125 16.625 27.7163 16.625 29.6875V52.25H40.375V29.6875C40.375 27.7163 38.7837 26.125 36.8125 26.125ZM25.5312 42.1562C25.5312 43.13 24.7237 43.9375 23.75 43.9375C22.7762 43.9375 21.9687 43.13 21.9687 42.1562V38.5938C21.9687 37.62 22.7762 36.8125 23.75 36.8125C24.7237 36.8125 25.5312 37.62 25.5312 38.5938V42.1562Z" fill="#074642"/>
</svg>
