<svg width="22" height="22" viewBox="0 0 22 22" fill="none" xmlns="http://www.w3.org/2000/svg">
<path fill-rule="evenodd" clip-rule="evenodd" d="M4.19586 10.7778C3.47606 10.7778 3.11617 10.7778 2.8517 10.9725C2.77299 11.0305 2.69733 11.1061 2.63937 11.1848C2.44463 11.4493 2.44456 11.8013 2.44444 12.5053C2.44443 12.5603 2.44443 12.6162 2.44443 12.6728V18.0003C2.44443 19.8859 2.44443 20.8287 3.03022 21.4145C3.616 22.0003 4.55881 22.0003 6.44443 22.0003H15.5555C17.4412 22.0003 18.384 22.0003 18.9698 21.4145C19.5555 20.8287 19.5555 19.8859 19.5555 18.0003V12.6728C19.5555 12.6162 19.5555 12.5604 19.5555 12.5053C19.5554 11.8013 19.5553 11.4493 19.3606 11.1848C19.3026 11.1061 19.227 11.0305 19.1483 10.9725C18.8838 10.7778 18.5239 10.7778 17.8041 10.7778L17.775 10.7779C17.634 10.7779 17.4571 10.7781 17.3001 10.7606C17.1072 10.7391 16.8528 10.6837 16.6032 10.5107C16.4776 10.4237 16.3037 10.4222 16.1762 10.5066C15.9424 10.6613 15.6966 10.7205 15.5076 10.747C15.2857 10.7781 15.0241 10.778 14.7993 10.7779L14.7561 10.7778H12.4939L12.4582 10.7779C12.2806 10.778 12.0647 10.7781 11.8769 10.7542C11.6482 10.725 11.3383 10.6482 11.0598 10.4024C11.0258 10.3724 10.9742 10.3724 10.9402 10.4024C10.6617 10.6482 10.3518 10.725 10.1231 10.7542C9.9352 10.7781 9.71938 10.778 9.54175 10.7779L9.50608 10.7778H7.24387L7.20064 10.7779C6.97584 10.778 6.71428 10.7781 6.4923 10.747C6.30337 10.7205 6.05753 10.6613 5.8237 10.5066C5.69626 10.4222 5.52237 10.4237 5.39676 10.5107C5.14712 10.6837 4.89271 10.7391 4.6998 10.7606C4.54281 10.7781 4.36593 10.7779 4.22491 10.7779L4.19586 10.7778ZM2.88776 8.78399C2.63736 9.27057 3.06786 9.77784 3.61509 9.77784H4.19586C4.53107 9.77784 4.69868 9.77784 4.82716 9.6888C4.95564 9.59977 5.01449 9.44283 5.13219 9.12896L5.21526 8.90746L5.35252 8.54142L6.10903 6.52407L6.1093 6.52334L6.1258 6.47935C6.24079 6.17271 6.32567 5.94635 6.39285 5.80332C6.40417 5.7792 6.37176 5.75061 6.35008 5.7661L6.35008 5.7661L5.79452 6.16292L5.79452 6.16293C4.15223 7.33599 3.33109 7.92252 2.88776 8.78399ZM7.33667 5.06502C6.98378 5.31287 6.56501 6.14648 6.51152 6.57438L6.50569 6.621L6.50559 6.62178L6.25159 8.65381C6.22784 8.84378 6.2084 8.9993 6.20038 9.12845C6.18629 9.35546 6.20749 9.50096 6.30264 9.60874C6.45191 9.77784 6.7159 9.77784 7.24387 9.77784H9.50608C9.92642 9.77784 10.1366 9.77784 10.2784 9.65268C10.4181 9.52935 10.4454 9.32507 10.4961 8.92008L10.4984 8.90188L10.7896 6.57211L10.7952 6.527L10.8015 6.4766C10.875 5.88898 10.9117 5.59518 11 5.59518C11.0883 5.59518 11.125 5.88898 11.1984 6.4766L11.2047 6.527L11.2104 6.57211L11.5016 8.90188L11.5039 8.92008C11.5545 9.32507 11.5819 9.52935 11.7216 9.65268C11.8634 9.77784 12.0735 9.77784 12.4939 9.77784H14.7561C15.284 9.77784 15.548 9.77784 15.6973 9.60874C15.7925 9.50096 15.8137 9.35546 15.7996 9.12845C15.7915 8.99931 15.7721 8.84378 15.7484 8.65381L15.4944 6.62178L15.4943 6.621L15.4884 6.57437C15.435 6.14656 15.0161 5.31281 14.6633 5.06501C13.0453 3.92857 12.079 3.36035 11 3.36035C9.92095 3.36035 8.95471 3.92857 7.33667 5.06502ZM15.6071 5.80333C15.5958 5.77921 15.6282 5.75061 15.6499 5.7661L16.2054 6.16292C17.8477 7.33599 18.6689 7.92252 19.1122 8.78399C19.3626 9.27057 18.9321 9.77784 18.3849 9.77784H17.8041C17.4689 9.77784 17.3013 9.77784 17.1728 9.6888C17.0443 9.59977 16.9855 9.44284 16.8678 9.12897L16.8678 9.12896L16.7847 8.90745L16.6474 8.54142L15.8909 6.52407L15.8906 6.52334L15.8742 6.47935C15.7592 6.17272 15.6743 5.94636 15.6071 5.80333Z" fill="#8A95BF" fill-opacity="0.5"/>
<path d="M1.68698 3.02986C2.05076 1.57474 2.23265 0.847178 2.77517 0.423589C3.3177 0 4.06765 0 5.56755 0H16.4324C17.9324 0 18.6823 0 19.2248 0.423589C19.7673 0.847178 19.9492 1.57474 20.313 3.02986L21.6894 8.53524C21.8324 9.10721 21.9039 9.39319 21.7537 9.58548C21.6036 9.77778 21.3088 9.77778 20.7192 9.77778H18.5992C17.8823 9.77778 17.5239 9.77778 17.2582 9.58007C16.9925 9.38236 16.8895 9.03907 16.6835 8.35247L16.4301 7.50788C16.0289 6.17045 15.8283 5.50174 15.6656 5.5165C15.6516 5.51777 15.6378 5.5205 15.6244 5.52466C15.4684 5.57303 15.5379 6.26772 15.6768 7.6571C15.772 8.60891 15.8196 9.08481 15.5639 9.4035C15.5391 9.43446 15.5125 9.4639 15.4841 9.49169C15.1925 9.77778 14.7142 9.77778 13.7576 9.77778H13.4211C12.5609 9.77778 12.1308 9.77778 11.8451 9.51923C11.5594 9.26068 11.5166 8.83272 11.431 7.97679L11.398 7.64682C11.2533 6.20003 11.181 5.47664 11 5.47664C10.819 5.47664 10.7467 6.20003 10.602 7.64681L10.569 7.97678C10.4834 8.83272 10.4406 9.26068 10.1549 9.51923C9.86922 9.77778 9.43911 9.77778 8.57891 9.77778H8.24236C7.28581 9.77778 6.80754 9.77778 6.51586 9.49169C6.48753 9.4639 6.46088 9.43446 6.43605 9.4035C6.18041 9.08481 6.228 8.60891 6.32318 7.6571C6.46212 6.26772 6.53159 5.57303 6.37555 5.52466C6.36215 5.5205 6.34836 5.51777 6.33439 5.5165C6.1717 5.50174 5.97109 6.17045 5.56986 7.50788L5.31648 8.35247C5.1105 9.03907 5.00751 9.38236 4.74179 9.58007C4.47606 9.77778 4.11765 9.77778 3.40083 9.77778H1.28078C0.691208 9.77778 0.396424 9.77778 0.246285 9.58548C0.0961469 9.39319 0.167643 9.10721 0.310634 8.53524L1.68698 3.02986Z" fill="#222222"/>
<path d="M12.0556 14.6665H9.94446C8.83989 14.6665 7.94446 15.5619 7.94446 16.6665V21.8498C7.94446 21.9327 8.01162 21.9998 8.09446 21.9998H13.9056C13.9884 21.9998 14.0556 21.9327 14.0556 21.8498V16.6665C14.0556 15.5619 13.1601 14.6665 12.0556 14.6665Z" fill="#222222"/>
</svg>
