<svg width="23" height="26" viewBox="0 0 23 26" fill="none" xmlns="http://www.w3.org/2000/svg">
<path d="M1.29169 12.3873C1.29169 10.4073 1.29169 9.41724 1.69194 8.547C2.0922 7.67675 2.84389 7.03245 4.34726 5.74384L5.8056 4.49384C8.52293 2.1647 9.8816 1.00012 11.5 1.00012C13.1184 1.00012 14.4771 2.1647 17.1944 4.49384L18.6528 5.74384C20.1562 7.03245 20.9078 7.67675 21.3081 8.547C21.7084 9.41724 21.7084 10.4073 21.7084 12.3873V18.5712C21.7084 21.3211 21.7084 22.696 20.8541 23.5503C19.9998 24.4046 18.6249 24.4046 15.875 24.4046H7.12502C4.37516 24.4046 3.00023 24.4046 2.14596 23.5503C1.29169 22.696 1.29169 21.3211 1.29169 18.5712V12.3873Z" stroke="#8A95BF" stroke-width="2"/>
<path d="M15.1459 24.4045V16.6545C15.1459 16.1023 14.6981 15.6545 14.1459 15.6545H8.85419C8.3019 15.6545 7.85419 16.1023 7.85419 16.6545V24.4045" stroke="#8A95BF" stroke-width="2" stroke-linecap="round" stroke-linejoin="round"/>
</svg>
