<svg width="45" height="45" viewBox="0 0 45 45" fill="none" xmlns="http://www.w3.org/2000/svg">
<path d="M5 44H40V9.42857H5V44ZM22.5 12.5714C30.4084 12.5714 36.8182 18.9027 36.8182 26.7143C36.8182 34.5259 30.4084 40.8571 22.5 40.8571C14.5916 40.8571 8.18182 34.5259 8.18182 26.7143C8.18182 18.9027 14.5916 12.5714 22.5 12.5714ZM5 0V7.85714H40V0H5ZM9.77273 4.71429H8.18182V3.14286H9.77273V4.71429ZM12.9545 4.71429H11.3636V3.14286H12.9545V4.71429ZM36.8182 4.71429H35.2273V3.14286H36.8182V4.71429Z" fill="#074642"/>
<path d="M10.0374 27.0815C10.0309 27.2417 10 27.3941 10 27.5559C10 34.4282 15.8207 40 23 40C30.1792 40 36 34.4282 36 27.5559C36 27.3941 35.9691 27.2417 35.9642 27.0815C35.4247 27.3755 34.8089 27.5559 34.1442 27.5559C32.0919 27.5559 30.4295 25.9631 30.4295 24C30.4295 25.9646 28.7671 27.5559 26.7148 27.5559C24.6624 27.5559 23 25.9646 23 24C23 25.9646 21.3392 27.5559 19.2869 27.5559C17.2345 27.5559 15.5721 25.9631 15.5721 24C15.5721 25.9646 13.9081 27.5559 11.8574 27.5559C11.1927 27.5559 10.5769 27.3755 10.0374 27.0815Z" fill="#0F9E94"/>
</svg>
