<svg width="26" height="22" viewBox="0 0 26 22" fill="none" xmlns="http://www.w3.org/2000/svg">
<ellipse cx="7.5" cy="7.5" rx="7.5" ry="7.5" transform="matrix(4.37114e-08 -1 -1 -4.37114e-08 24.125 18.5)" fill="#0F9E94" fill-opacity="0.7"/>
<path d="M8.825 11C8.825 6.69218 12.3172 3.2 16.625 3.2C20.9328 3.2 24.425 6.69218 24.425 11C24.425 15.3078 20.9328 18.8 16.625 18.8C12.3172 18.8 8.825 15.3078 8.825 11Z" stroke="#0F9E94" stroke-opacity="0.7" stroke-width="0.6"/>
<path d="M9.125 19.6603C10.6452 20.5379 12.3696 21 14.125 21C15.8804 21 17.6048 20.5379 19.125 19.6603C20.6452 18.7826 21.9076 17.5202 22.7853 16C23.6629 14.4798 24.125 12.7554 24.125 11C24.125 9.24463 23.6629 7.52019 22.7853 6C21.9076 4.47981 20.6452 3.21743 19.125 2.33975C17.6048 1.46206 15.8804 1 14.125 1C12.3696 1 10.6452 1.46206 9.125 2.33975" stroke="#074642" stroke-width="2"/>
<path d="M1.625 11L0.844131 10.3753L0.344375 11L0.844131 11.6247L1.625 11ZM12.875 12C13.4273 12 13.875 11.5523 13.875 11C13.875 10.4477 13.4273 10 12.875 10V12ZM5.84413 4.1253L0.844131 10.3753L2.40587 11.6247L7.40587 5.3747L5.84413 4.1253ZM0.844131 11.6247L5.84413 17.8747L7.40587 16.6253L2.40587 10.3753L0.844131 11.6247ZM1.625 12H12.875V10H1.625V12Z" fill="#074642"/>
</svg>
