<svg width="26" height="26" viewBox="0 0 26 26" fill="none" xmlns="http://www.w3.org/2000/svg">
<path d="M5.59712 7.62589C6.01625 3.85376 9.20466 1 13 1V1C16.7953 1 19.9838 3.85376 20.4029 7.62589L20.7386 10.6475C20.8068 11.2616 20.841 11.5686 20.8978 11.8691C21.0354 12.5959 21.2731 13.3 21.6041 13.9614C21.741 14.2349 21.8999 14.4998 22.2178 15.0297L23.1826 16.6377C23.9884 17.9806 24.3912 18.6521 24.104 19.1594C23.8168 19.6667 23.0337 19.6667 21.4676 19.6667H4.53238C2.96627 19.6667 2.18322 19.6667 1.89599 19.1594C1.60876 18.6521 2.01164 17.9806 2.81739 16.6377L3.78221 15.0297C4.10009 14.4998 4.25904 14.2349 4.39591 13.9614C4.72691 13.3 4.96459 12.5959 5.10216 11.8691C5.15904 11.5686 5.19316 11.2616 5.26139 10.6475L5.59712 7.62589Z" stroke="#8A95BF" stroke-width="2"/>
<path d="M7.66668 19.6667C7.66668 20.367 7.80463 21.0606 8.07265 21.7076C8.34068 22.3547 8.73353 22.9427 9.22877 23.4379C9.72402 23.9331 10.312 24.326 10.959 24.594C11.6061 24.862 12.2996 25 13 25C13.7004 25 14.3939 24.862 15.041 24.594C15.6881 24.326 16.276 23.9331 16.7712 23.4379C17.2665 22.9427 17.6593 22.3547 17.9274 21.7076C18.1954 21.0606 18.3333 20.367 18.3333 19.6667" stroke="#8A95BF" stroke-width="2" stroke-linecap="round"/>
</svg>
