<svg width="24" height="22" viewBox="0 0 24 22" fill="none" xmlns="http://www.w3.org/2000/svg">
<path d="M16.7587 14.2182H9.30981C8.47612 14.2182 7.72988 13.7011 7.43715 12.9205L4.65386 5.49834C4.4087 4.84459 4.89198 4.14722 5.59019 4.14722H20.6033C21.7183 4.14722 22.4436 5.32069 21.9449 6.31804L18.5476 13.1126C18.2088 13.7902 17.5163 14.2182 16.7587 14.2182Z" fill="#8A95BF" fill-opacity="0.5"/>
<circle cx="17.9948" cy="20.5125" r="1.25887" fill="#222222"/>
<circle cx="7.92381" cy="20.5125" r="1.25887" fill="#222222"/>
<path d="M18.6242 17.3652H6.72902C6.22232 17.3652 5.96896 17.3652 5.78818 17.2919C5.43226 17.1476 5.19047 16.8121 5.16607 16.4288C5.15367 16.2341 5.23379 15.9937 5.39402 15.513V15.513C5.57168 14.9801 5.66051 14.7136 5.79979 14.4992C6.07178 14.0804 6.49059 13.7786 6.97386 13.6529C7.22133 13.5886 7.50222 13.5886 8.06401 13.5886H17.3654" stroke="#222222" stroke-width="2" stroke-linecap="round" stroke-linejoin="round"/>
<path d="M1 1H3.33511C4.03083 1 4.37869 1 4.64057 1.18876C4.90246 1.37752 5.01246 1.70753 5.23247 2.36754L6.0355 4.77662" stroke="#222222" stroke-width="2" stroke-linecap="round"/>
</svg>
