<svg width="158" height="158" viewBox="0 0 158 158" fill="none" xmlns="http://www.w3.org/2000/svg">
<circle cx="79" cy="79" r="79" fill="#0066F5" fill-opacity="0.1"/>
<path opacity="0.2" d="M79 87.75C88.665 87.75 96.5 79.915 96.5 70.25C96.5 60.585 88.665 52.75 79 52.75C69.335 52.75 61.5 60.585 61.5 70.25C61.5 79.915 69.335 87.75 79 87.75Z" fill="#0066F5"/>
<path d="M107.41 101.969C103.328 94.9373 96.795 89.66 89.0625 87.1484C92.7688 84.9444 95.6491 81.5844 97.2607 77.5847C98.8724 73.585 99.1263 69.1668 97.9834 65.0088C96.8405 60.8509 94.3641 57.1831 90.9346 54.569C87.5051 51.955 83.3121 50.5392 79 50.5392C74.6878 50.5392 70.4948 51.955 67.0653 54.569C63.6358 57.1831 61.1594 60.8509 60.0165 65.0088C58.8736 69.1668 59.1275 73.585 60.7392 77.5847C62.3508 81.5844 65.2311 84.9444 68.9374 87.1484C61.2049 89.66 54.6715 94.9373 50.5898 101.969C50.4186 102.217 50.3006 102.498 50.2433 102.794C50.1859 103.09 50.1904 103.395 50.2566 103.69C50.3227 103.984 50.4489 104.261 50.6274 104.505C50.8059 104.748 51.0328 104.951 51.2938 105.103C51.5547 105.254 51.8442 105.35 52.1439 105.384C52.4436 105.418 52.7472 105.389 53.0354 105.301C53.3237 105.212 53.5905 105.064 53.819 104.867C54.0475 104.67 54.2328 104.428 54.3632 104.156C56.8635 99.8358 60.4559 96.2489 64.7801 93.7553C69.1043 91.2616 74.0083 89.949 79 89.949C83.9916 89.949 88.8956 91.2616 93.2198 93.7553C97.544 96.2489 101.136 99.8358 103.637 104.156C103.767 104.428 103.952 104.67 104.181 104.867C104.409 105.064 104.676 105.212 104.964 105.301C105.253 105.389 105.556 105.418 105.856 105.384C106.156 105.35 106.445 105.254 106.706 105.103C106.967 104.951 107.194 104.748 107.372 104.505C107.551 104.261 107.677 103.984 107.743 103.69C107.809 103.395 107.814 103.09 107.757 102.794C107.699 102.498 107.581 102.217 107.41 101.969ZM63.6874 70.2499C63.6874 67.2214 64.5855 64.2609 66.2681 61.7428C67.9506 59.2246 70.3421 57.262 73.1401 56.103C75.9381 54.9441 79.0169 54.6408 81.9873 55.2317C84.9576 55.8225 87.686 57.2809 89.8275 59.4224C91.969 61.5639 93.4274 64.2923 94.0182 67.2626C94.6091 70.233 94.3058 73.3118 93.1469 76.1098C91.9879 78.9078 90.0252 81.2993 87.5071 82.9818C84.989 84.6644 82.0285 85.5624 79 85.5624C74.9388 85.5624 71.044 83.9492 68.1724 81.0775C65.3007 78.2059 63.6874 74.3111 63.6874 70.2499Z" fill="#0066F5"/>
</svg>
