<svg width="42" height="42" viewBox="0 0 42 42" fill="none" xmlns="http://www.w3.org/2000/svg">
<mask id="path-1-inside-1_130_430" fill="white">
<path fill-rule="evenodd" clip-rule="evenodd" d="M3.05556 28.3889L10.489 20.9555C12.3818 19.0627 13.3282 18.1163 14.3703 18.317C15.4123 18.5176 15.9395 19.7479 16.994 22.2083L19.8363 28.8404C20.3636 30.0706 20.6272 30.6857 21.1482 30.786C21.6692 30.8864 22.1424 30.4132 23.0888 29.4668L26.616 25.9396C27.9494 24.6063 28.616 23.9396 29.4444 23.9396C30.2729 23.9396 30.9395 24.6063 32.2729 25.9396L32.2729 25.9396L35.6497 29.3164C36.7025 30.3692 37.2289 30.8956 37.8872 31.1955C37.9718 31.2341 38.0577 31.2697 38.1447 31.3022C38.6395 31.4873 39.17 31.5372 40 31.5506V31.9993C40 35.7706 40 37.6562 38.8284 38.8278C37.6569 39.9993 35.7712 39.9993 32 39.9993H10C6.22876 39.9993 4.34315 39.9993 3.17157 38.8278C2 37.6562 2 35.7706 2 31.9993V9.99933C2 6.35693 2 4.47352 3.05556 3.29353V28.3889Z"/>
</mask>
<path fill-rule="evenodd" clip-rule="evenodd" d="M3.05556 28.3889L10.489 20.9555C12.3818 19.0627 13.3282 18.1163 14.3703 18.317C15.4123 18.5176 15.9395 19.7479 16.994 22.2083L19.8363 28.8404C20.3636 30.0706 20.6272 30.6857 21.1482 30.786C21.6692 30.8864 22.1424 30.4132 23.0888 29.4668L26.616 25.9396C27.9494 24.6063 28.616 23.9396 29.4444 23.9396C30.2729 23.9396 30.9395 24.6063 32.2729 25.9396L32.2729 25.9396L35.6497 29.3164C36.7025 30.3692 37.2289 30.8956 37.8872 31.1955C37.9718 31.2341 38.0577 31.2697 38.1447 31.3022C38.6395 31.4873 39.17 31.5372 40 31.5506V31.9993C40 35.7706 40 37.6562 38.8284 38.8278C37.6569 39.9993 35.7712 39.9993 32 39.9993H10C6.22876 39.9993 4.34315 39.9993 3.17157 38.8278C2 37.6562 2 35.7706 2 31.9993V9.99933C2 6.35693 2 4.47352 3.05556 3.29353V28.3889Z" fill="white" fill-opacity="0.8"/>
<path d="M10.489 20.9555L13.3174 23.7839L13.3174 23.7839L10.489 20.9555ZM3.05556 28.3889H-0.944444V38.0458L5.88398 31.2174L3.05556 28.3889ZM14.3703 18.317L15.1267 14.3891H15.1267L14.3703 18.317ZM16.994 22.2083L20.6706 20.6326L16.994 22.2083ZM19.8363 28.8404L16.1598 30.4161L19.8363 28.8404ZM21.1482 30.786L21.9046 26.8582H21.9046L21.1482 30.786ZM32.2729 25.9396L29.4444 28.768V28.768L32.2729 25.9396ZM35.6497 29.3164L38.4781 26.488V26.488L35.6497 29.3164ZM37.8872 31.1955L39.5458 27.5556L39.5458 27.5556L37.8872 31.1955ZM38.1447 31.3022L39.5458 27.5556L39.5457 27.5556L38.1447 31.3022ZM40 31.5506H44V27.615L40.0649 27.5512L40 31.5506ZM38.8284 38.8278L36 35.9993L36 35.9993L38.8284 38.8278ZM3.17157 38.8278L6 35.9993L6 35.9993L3.17157 38.8278ZM3.05556 3.29353H7.05556V-7.17757L0.0743095 0.626661L3.05556 3.29353ZM7.66056 18.1271L0.227129 25.5605L5.88398 31.2174L13.3174 23.7839L7.66056 18.1271ZM15.1267 14.3891C12.9824 13.9762 11.3269 14.9247 10.3639 15.6398C9.46704 16.3058 8.51402 17.2736 7.66056 18.1271L13.3174 23.7839C13.802 23.2993 14.1748 22.927 14.4989 22.6198C14.827 22.3089 15.0211 22.146 15.1334 22.0626C15.2506 21.9755 15.1506 22.0728 14.8784 22.1653C14.5454 22.2786 14.095 22.3375 13.6138 22.2448L15.1267 14.3891ZM20.6706 20.6326C20.1951 19.5232 19.6697 18.2707 19.0843 17.3192C18.4558 16.2976 17.2709 14.8021 15.1267 14.3891L13.6138 22.2448C13.1327 22.1521 12.7363 21.9302 12.4692 21.7014C12.2509 21.5143 12.1941 21.3869 12.2706 21.5113C12.3439 21.6304 12.4636 21.8537 12.6528 22.2643C12.8396 22.6699 13.0475 23.154 13.3174 23.7839L20.6706 20.6326ZM23.5129 27.2647L20.6706 20.6326L13.3174 23.7839L16.1598 30.4161L23.5129 27.2647ZM21.9046 26.8582C22.5161 26.976 23.0266 27.2551 23.3999 27.575C23.7245 27.853 23.8795 28.1052 23.9014 28.1409C23.9266 28.1818 23.9056 28.1538 23.8234 27.9755C23.7436 27.8021 23.6511 27.5871 23.5129 27.2647L16.1598 30.4161C16.3716 30.9104 16.6993 31.7016 17.0878 32.333C17.5193 33.0344 18.508 34.3511 20.3918 34.7139L21.9046 26.8582ZM20.2604 26.6383C20.0124 26.8863 19.8467 27.0516 19.7082 27.1829C19.5656 27.318 19.5357 27.3362 19.5743 27.3075C19.6079 27.2826 19.8455 27.106 20.2501 26.9684C20.7155 26.8101 21.2932 26.7405 21.9046 26.8582L20.3918 34.7139C22.2755 35.0766 23.6825 34.2213 24.3437 33.7303C24.9389 33.2884 25.537 32.6755 25.9173 32.2952L20.2604 26.6383ZM23.7876 23.1112L20.2604 26.6383L25.9173 32.2952L29.4444 28.768L23.7876 23.1112ZM29.4444 19.9396C27.804 19.9396 26.5859 20.6547 25.7933 21.2595C25.0929 21.7939 24.3743 22.5245 23.7876 23.1112L29.4444 28.768C29.7883 28.4242 30.0413 28.1715 30.2601 27.9635C30.4804 27.754 30.5948 27.6587 30.6459 27.6197C30.6949 27.5823 30.5972 27.6659 30.3801 27.7564C30.1311 27.8603 29.8065 27.9396 29.4444 27.9396V19.9396ZM35.1013 23.1112C34.5146 22.5244 33.796 21.7939 33.0956 21.2595C32.3029 20.6547 31.0849 19.9396 29.4444 19.9396V27.9396C29.0824 27.9396 28.7578 27.8603 28.5088 27.7564C28.2917 27.6659 28.194 27.5823 28.243 27.6197C28.2941 27.6587 28.4084 27.754 28.6287 27.9635C28.8476 28.1715 29.1006 28.4242 29.4444 28.768L35.1013 23.1112ZM35.1013 23.1112L35.1013 23.1112L29.4444 28.768L29.4444 28.768L35.1013 23.1112ZM38.4781 26.488L35.1013 23.1112L29.4444 28.768L32.8213 32.1449L38.4781 26.488ZM39.5458 27.5556C39.6857 27.6194 39.7149 27.6711 39.5424 27.521C39.3254 27.3321 39.0422 27.0521 38.4781 26.488L32.8213 32.1449C33.6653 32.9889 34.7589 34.1658 36.2286 34.8355L39.5458 27.5556ZM39.5457 27.5556L39.5458 27.5556L36.2286 34.8355C36.3978 34.9126 36.5696 34.9837 36.7437 35.0488L39.5457 27.5556ZM40.0649 27.5512C39.6959 27.5452 39.5257 27.532 39.443 27.5217C39.3893 27.515 39.446 27.5183 39.5458 27.5556L36.7437 35.0488C37.9259 35.4909 39.0488 35.5357 39.9351 35.5501L40.0649 27.5512ZM36 31.5506V31.9993H44V31.5506H36ZM36 31.9993C36 33.998 35.9915 35.0947 35.8892 35.8554C35.8024 36.5011 35.7187 36.2806 36 35.9993L41.6568 41.6562C43.1097 40.2033 43.6118 38.4542 43.8179 36.9214C44.0085 35.5037 44 33.7719 44 31.9993H36ZM36 35.9993C36.2813 35.718 36.5018 35.8017 35.8561 35.8886C35.0953 35.9908 33.9987 35.9993 32 35.9993V43.9993C33.7725 43.9993 35.5043 44.0078 36.9221 43.8172C38.4549 43.6111 40.204 43.1091 41.6569 41.6562L36 35.9993ZM32 35.9993H10V43.9993H32V35.9993ZM10 35.9993C8.0013 35.9993 6.90467 35.9908 6.1439 35.8886C5.4982 35.8017 5.71871 35.718 6 35.9993L0.343145 41.6562C1.79601 43.1091 3.54511 43.6111 5.07792 43.8172C6.49566 44.0078 8.22746 43.9993 10 43.9993V35.9993ZM6 35.9993C6.28129 36.2806 6.19759 36.5011 6.11078 35.8554C6.00849 35.0947 6 33.998 6 31.9993H-2C-2 33.7719 -2.00849 35.5037 -1.81788 36.9214C-1.6118 38.4542 -1.10972 40.2033 0.34315 41.6562L6 35.9993ZM6 31.9993V9.99933H-2V31.9993H6ZM6 9.99933C6 8.07674 6.00706 6.98412 6.10208 6.21093C6.18765 5.51464 6.28543 5.68246 6.0368 5.96039L0.0743095 0.626661C-1.22987 2.08458 -1.65987 3.7841 -1.83819 5.23512C-2.00706 6.60923 -2 8.27952 -2 9.99933H6ZM7.05556 28.3889V3.29353H-0.944444V28.3889H7.05556Z" fill="white" fill-opacity="0.8" mask="url(#path-1-inside-1_130_430)"/>
<path d="M21 2H10C6.22876 2 4.34315 2 3.17157 3.17157C2 4.34315 2 6.22876 2 10V32C2 35.7712 2 37.6569 3.17157 38.8284C4.34315 40 6.22876 40 10 40H32C35.7712 40 37.6569 40 38.8284 38.8284C40 37.6569 40 35.7712 40 32V21" stroke="white" stroke-opacity="0.8" stroke-width="4"/>
<path d="M40 2V0H42V2H40ZM30.6938 12.0062C29.8313 12.6962 28.5727 12.5564 27.8827 11.6938C27.1927 10.8313 27.3325 9.57273 28.1951 8.88271L30.6938 12.0062ZM38 12.5556V2H42V12.5556H38ZM40 4H29.4444V0H40V4ZM41.2494 3.56174L30.6938 12.0062L28.1951 8.88271L38.7506 0.438262L41.2494 3.56174Z" fill="white" fill-opacity="0.8"/>
</svg>
