<svg width="24" height="22" viewBox="0 0 24 22" fill="none" xmlns="http://www.w3.org/2000/svg">
<path d="M0 8.44434C0 4.6731 0 2.78748 1.17157 1.61591C2.34315 0.444336 4.22876 0.444336 8 0.444336H16C19.7712 0.444336 21.6569 0.444336 22.8284 1.61591C24 2.78748 24 4.6731 24 8.44433V10.811C24 10.9524 24 11.0231 23.9561 11.0671C23.9121 11.111 23.8414 11.111 23.7 11.111H18C17.6905 11.111 17.5357 11.111 17.4052 11.1224C15.9549 11.2493 14.805 12.3992 14.6781 13.8495C14.6667 13.98 14.6667 14.1348 14.6667 14.4443C14.6667 14.7539 14.6667 14.9087 14.6781 15.0391C14.805 16.4895 15.9549 17.6394 17.4052 17.7663C17.5357 17.7777 17.6905 17.7777 18 17.7777H23.8554C23.9353 17.7777 24 17.8424 24 17.9222C24 20.0515 22.2739 21.7777 20.1446 21.7777H8C4.22876 21.7777 2.34315 21.7777 1.17157 20.6061C0 19.4345 0 17.5489 0 13.7777V8.44434Z" fill="#8A95BF" fill-opacity="0.5"/>
<path d="M14.6667 13.1111C14.6667 12.0065 15.5622 11.1111 16.6667 11.1111H23.8501C23.9329 11.1111 24.0001 11.1782 24.0001 11.2611V17.6278C24.0001 17.7106 23.9329 17.7778 23.8501 17.7778H16.6667C15.5622 17.7778 14.6667 16.8823 14.6667 15.7778V13.1111Z" fill="#222222"/>
<rect x="4" y="4.44458" width="8" height="1.33333" rx="0.666667" fill="#222222"/>
</svg>
