<svg width="19" height="20" viewBox="0 0 19 20" fill="none" xmlns="http://www.w3.org/2000/svg">
<path d="M17.2837 2.88883C18 3.96078 18 5.45302 18 8.4375C18 11.422 18 12.9142 17.2837 13.9862C16.9737 14.4502 16.5752 14.8487 16.1112 15.1587C15.1747 15.7845 13.9176 15.8636 11.625 15.8736V15.875L10.4503 18.2243C10.0588 19.0075 8.94123 19.0075 8.54967 18.2243L7.375 15.875V15.8736C5.08244 15.8636 3.82526 15.7845 2.88883 15.1587C2.42477 14.8487 2.02633 14.4502 1.71625 13.9862C1 12.9142 1 11.422 1 8.4375C1 5.45302 1 3.96078 1.71625 2.88883C2.02633 2.42477 2.42477 2.02633 2.88883 1.71625C3.96078 1 5.45302 1 8.4375 1H10.5625C13.547 1 15.0392 1 16.1112 1.71625C16.5752 2.02633 16.9737 2.42477 17.2837 2.88883Z" fill="#57BBB4" fill-opacity="0.7" stroke="#074642" stroke-width="2" stroke-linecap="round" stroke-linejoin="round"/>
<path d="M6.3125 6.3125L12.6875 6.3125" stroke="#074642" stroke-width="2" stroke-linecap="round" stroke-linejoin="round"/>
<path d="M6.3125 10.5625H9.5" stroke="#074642" stroke-width="2" stroke-linecap="round" stroke-linejoin="round"/>
</svg>
